{
  "accessors": [
    {
      "bufferView": 1,
      "componentType": 5126,
      "count": 1362,
      "max": [
        2.7397050857543945,
        1.1884403228759766,
        4.1373023986816406
      ],
      "min": [
        -2.1722161769866943,
        -1.106440544128418,
        -5.441556453704834
      ],
      "type": "VEC3"
    },
    {
      "bufferView": 1,
      "byteOffset": 16344,
      "componentType": 5126,
      "count": 1362,
      "max": [
        0.99799394607543945,
        0.99725556373596191,
        0.99430650472640991
      ],
      "min": [
        -0.97954827547073364,
        -0.99867206811904907,
        -0.99845248460769653
      ],
      "type": "VEC3"
    },
    {
      "bufferView": 0,
      "componentType": 5125,
      "count": 2076,
      "max": [
        1361
      ],
      "min": [
        0
      ],
      "type": "SCALAR"
    }
  ],
  "asset": {
    "extras": {
      "author": "salahzar (https://sketchfab.com/salahzar)",
      "license": "CC-BY-4.0 (http://creativecommons.org/licenses/by/4.0/)",
      "source": "https://sketchfab.com/models/41e8355237914c53be03bfe1311b5ad1",
      "title": "Gatto"
    },
    "generator": "Sketchfab-3.22.12",
    "version": "2.0"
  },
  "bufferViews": [
    {
      "buffer": 0,
      "byteLength": 8304,
      "byteOffset": 0,
      "name": "floatBufferViews",
      "target": 34963
    },
    {
      "buffer": 0,
      "byteLength": 32688,
      "byteOffset": 8304,
      "byteStride": 12,
      "name": "floatBufferViews",
      "target": 34962
    }
  ],
  "buffers": [
    {
      "byteLength": 40992,
      "uri": "scene.bin"
    }
  ],
  "materials": [
    {
      "doubleSided": true,
      "emissiveFactor": [
        0,
        0,
        0
      ],
      "name": "Scene_-_Root",
      "pbrMetallicRoughness": {
        "baseColorFactor": [
          1,
          1,
          1,
          1
        ],
        "metallicFactor": 0,
        "roughnessFactor": 0.59999999999999998
      }
    }
  ],
  "meshes": [
    {
      "name": "Cilindro__0",
      "primitives": [
        {
          "attributes": {
            "NORMAL": 1,
            "POSITION": 0
          },
          "indices": 2,
          "material": 0,
          "mode": 4
        }
      ]
    }
  ],
  "nodes": [
    {
      "children": [
        1
      ],
      "name": "RootNode (gltf orientation matrix)",
      "rotation": [
        -0.70710678118654746,
        -0,
        -0,
        0.70710678118654757
      ]
    },
    {
      "children": [
        2
      ],
      "name": "RootNode (model correction matrix)"
    },
    {
      "children": [
        3
      ],
      "matrix": [
        1,
        0,
        0,
        0,
        0,
        0,
        1,
        0,
        0,
        -1,
        0,
        0,
        0,
        0,
        0,
        1
      ],
      "name": "706be006b32e4aed850a4017a8af52cc.fbx"
    },
    {
      "children": [
        4
      ],
      "name": "RootNode"
    },
    {
      "children": [
        5
      ],
      "matrix": [
        6.7034114960806509e-07,
        -8.8789377212524112,
        2.6461287078182366e-07,
        0,
        -2.5050144062895414e-06,
        -2.6461305906200452e-07,
        -8.8789377212520826,
        0,
        8.8789377212520613,
        6.7034107419741679e-07,
        -2.5050144255118636e-06,
        0,
        50.363414764404297,
        39.060249328613281,
        5.2480900194495916e-06,
        1
      ],
      "name": "Cilindro"
    },
    {
      "mesh": 0,
      "name": "Cilindro__0"
    }
  ],
  "scene": 0,
  "scenes": [
    {
      "name": "OSG_Scene",
      "nodes": [
        0
      ]
    }
  ]
}

